<?xml version="1.0" encoding="utf-8"?>
<svg xmlns="http://www.w3.org/2000/svg" viewBox="0 0 48 48" width="16" height="16">
  <radialGradient id="1uLzRjFcEWilfRXlyvMpBa" cx="23.926" cy="30.805" r="19.357" gradientTransform="matrix(.00044 1 -.9682 .00042 53.742 6.866)" gradientUnits="userSpaceOnUse">
    <stop offset=".678" stop-color="#211e1e" />
    <stop offset="1" stop-color="#5c5050" />
  </radialGradient>
  <path fill="url(#1uLzRjFcEWilfRXlyvMpBa)" d="M40.851,38.158c-0.695,0.059-0.976,0.034-2.125-0.272c0.396,1.009,0.883,1.458,1.377,1.827c0.862,0.643,0.14,1.148-0.624,1.08c-0.764-0.069-1.895-0.576-2.158-0.802c0.07,0.574,0.319,0.961,0.535,1.265c0.216,0.303-0.093,0.924-0.843,0.695c-0.435-0.133-0.923-0.448-1.548-1.051c-0.017,0.363-0.279,1.036-0.61,1.04c-0.883,0.012-1.706-0.927-2.015-1.276c0.96-1.658,6.385-11.046,6.385-11.046l0.867,0.281c0,0-1.154,4.722,1.009,6.376C42.982,37.712,41.416,38.11,40.851,38.158z M7.908,29.898c0,0,1.154,4.722-1.009,6.376c-1.88,1.438-0.315,1.835,0.25,1.884c0.695,0.059,0.976,0.034,2.125-0.272c-0.396,1.009-0.883,1.458-1.377,1.827c-0.862,0.643-0.14,1.148,0.624,1.08c0.764-0.069,1.895-0.576,2.158-0.802c-0.07,0.574-0.319,0.961-0.535,1.265c-0.216,0.303,0.093,0.924,0.843,0.695c0.435-0.133,0.923-0.448,1.548-1.051c0.017,0.363,0.279,1.036,0.61,1.04c0.883,0.012,1.706-0.927,2.015-1.276c-0.96-1.658-6.385-11.046-6.385-11.046L7.908,29.898z" />
  <radialGradient id="1uLzRjFcEWilfRXlyvMpBb" cx="38.884" cy="18.834" r="2.47" gradientTransform="matrix(.9938 .1701 -.4458 2.1078 8.624 -17.718)" gradientUnits="userSpaceOnUse">
    <stop offset="0" stop-color="#f9e5c8" />
    <stop offset=".354" stop-color="#f8daba" />
    <stop offset=".5" stop-color="#f5d5b5" />
    <stop offset=".682" stop-color="#eec7a5" />
    <stop offset=".884" stop-color="#e1b08c" />
    <stop offset=".999" stop-color="#d8a07a" />
  </radialGradient>
  <path fill="url(#1uLzRjFcEWilfRXlyvMpBb)" d="M38,34c-0.6,0-0.932-0.234-0.846-0.753C37.327,32.207,38.01,25,38.01,25c1.716,0,3.99,0,3.99,3C42,31.34,40.495,34,38,34z" />
  <radialGradient id="1uLzRjFcEWilfRXlyvMpBc" cx="73.622" cy="18.834" r="2.47" gradientTransform="matrix(-.9938 .1701 .4458 2.1078 73.897 -23.628)" gradientUnits="userSpaceOnUse">
    <stop offset="0" stop-color="#f9e5c8" />
    <stop offset=".354" stop-color="#f8daba" />
    <stop offset=".5" stop-color="#f5d5b5" />
    <stop offset=".682" stop-color="#eec7a5" />
    <stop offset=".884" stop-color="#e1b08c" />
    <stop offset=".999" stop-color="#d8a07a" />
  </radialGradient>
  <path fill="url(#1uLzRjFcEWilfRXlyvMpBc)" d="M10,34c0.6,0,0.932-0.234,0.846-0.753C10.673,32.207,9.99,25,9.99,25C8.274,25,6,25,6,28C6,31.34,7.505,34,10,34z" />
  <radialGradient id="1uLzRjFcEWilfRXlyvMpBd" cx="-5.772" cy="40.994" r="18.583" fx="-5.87" fy="33.033" gradientTransform="matrix(.8804 0 0 1.0707 29.081 -18.058)" gradientUnits="userSpaceOnUse">
    <stop offset="0" stop-color="#f9e5c8" />
    <stop offset=".629" stop-color="#f8daba" />
    <stop offset=".713" stop-color="#f5d5b5" />
    <stop offset=".818" stop-color="#eec7a5" />
    <stop offset=".933" stop-color="#e1b08c" />
    <stop offset=".999" stop-color="#d8a07a" />
  </radialGradient>
  <path fill="url(#1uLzRjFcEWilfRXlyvMpBd)" d="M40.134,25.288c0,3.676-0.831,7.116-2.277,10.057C35.039,41.074,29.888,46,24,46c-5.888,0-11.039-4.926-13.857-10.655c-1.446-2.941-2.277-6.381-2.277-10.057c0-0.807,0.022-1.57,0.065-2.293c0.246-4.161,1.186-7.029,2.644-9.682C13.467,8.045,18.401,5.666,24,5.666c5.569,0,10.479,2.342,13.379,7.561C39.118,16.359,40.134,19.837,40.134,25.288z" />
  <path fill="#805b2a" d="M12.005,27.542c-0.029,0.438,0.069,0.401,0.246,0.62c0,0,2.001,2.631,8.038,0.83c0.436-0.148,0.751-0.43,0.706-0.769C20.221,22.393,13,23.102,12.005,27.542z" />
  <path fill="#fff" d="M12.096,27.484c-0.151,0.309-0.103,0.557,0,0.806c0.43,1.087,3.887,4.957,8.551,0.894c0.348-0.287,0.403-0.54,0.317-0.898C20.878,27.928,19.669,25,16.503,25C13.368,25,12.358,27.063,12.096,27.484z" />
  <linearGradient id="1uLzRjFcEWilfRXlyvMpBe" x1="14" x2="19" y1="27.5" y2="27.5" gradientUnits="userSpaceOnUse">
    <stop offset="0" stop-color="#c69c6d" />
    <stop offset="1" stop-color="#754c24" />
  </linearGradient>
  <circle cx="16.5" cy="27.5" r="2.5" fill="url(#1uLzRjFcEWilfRXlyvMpBe)" />
  <radialGradient id="1uLzRjFcEWilfRXlyvMpBf" cx="16.5" cy="27.5" r="1.266" gradientUnits="userSpaceOnUse">
    <stop offset="0" stop-color="#1c1911" />
    <stop offset=".999" stop-color="#171714" />
  </radialGradient>
  <circle cx="16.5" cy="27.5" r="1.266" fill="url(#1uLzRjFcEWilfRXlyvMpBf)" />
  <path fill="#805b2a" d="M35.995,27.53c0.029,0.44-0.069,0.403-0.246,0.623c0,0-2.001,2.646-8.038,0.834c-0.436-0.149-0.751-0.433-0.706-0.773C27.779,22.353,35,23.065,35.995,27.53z" />
  <path fill="#fff" d="M35.904,27.484c0.151,0.309,0.103,0.557,0,0.806c-0.43,1.087-3.887,4.957-8.551,0.894c-0.348-0.287-0.403-0.54-0.317-0.898C27.122,27.928,28.331,25,31.497,25C34.632,25,35.642,27.063,35.904,27.484z" />
  <linearGradient id="1uLzRjFcEWilfRXlyvMpBg" x1="15" x2="20" y1="27.5" y2="27.5" gradientTransform="translate(14)" gradientUnits="userSpaceOnUse">
    <stop offset="0" stop-color="#c69c6d" />
    <stop offset="1" stop-color="#754c24" />
  </linearGradient>
  <circle cx="31.5" cy="27.5" r="2.5" fill="url(#1uLzRjFcEWilfRXlyvMpBg)" />
  <radialGradient id="1uLzRjFcEWilfRXlyvMpBh" cx="-120.5" cy="27.5" r="1.266" gradientTransform="matrix(-1 0 0 1 -89 0)" gradientUnits="userSpaceOnUse">
    <stop offset="0" stop-color="#1c1911" />
    <stop offset=".999" stop-color="#171714" />
  </radialGradient>
  <circle cx="31.5" cy="27.5" r="1.266" fill="url(#1uLzRjFcEWilfRXlyvMpBh)" />
  <circle cx="15.5" cy="26.5" r=".5" fill="#fff" />
  <circle cx="30.5" cy="26.5" r=".5" fill="#fff" />
  <path d="M31.543,14.866C28.028,14.866,27.793,18,24,18s-4.028-3.134-7.543-3.134 c-7.973,0-8.363,13.726-7.363,16.853c-0.224-3.951,1.005-14.921,7.36-14.921c2.841,0,3.414,3.166,7.546,3.166 s4.705-3.166,7.546-3.166c6.355,0,7.631,10.944,7.36,14.921C39.776,28.575,39.516,14.866,31.543,14.866z" opacity=".1" />
  <path d="M31.584,14.904c-3.515,0-3.75,3.134-7.543,3.134s-4.028-3.134-7.543-3.134 c-7.973,0-8.363,13.726-7.363,16.853c-0.49-3.911,0.564-15.327,7.36-15.327c2.697,0,3.441,3.19,7.546,3.19 c3.805,0,4.705-3.161,7.546-3.161c6.504,0,7.821,10.801,7.36,15.298C39.817,28.613,39.556,14.904,31.584,14.904z" opacity=".1" />
  <path d="M31.584,14.904c-3.515,0-3.75,3.134-7.543,3.134s-4.028-3.134-7.543-3.134 c-6.126,0-7.443,9.751-7.443,9.751s1.61-8.576,7.441-8.576c2.644,0,3.388,3.132,7.546,3.132c3.805,0,4.811-3.173,7.651-3.173 c5.14,0,7.306,8.12,7.569,10.812C39.173,25.797,37.446,14.904,31.584,14.904z" opacity=".1" />
  <path d="M31.584,14.904c-3.515,0-3.75,3.134-7.543,3.134s-4.028-3.134-7.543-3.134 c-3.068,0-5.087,3.266-5.087,3.266s2.31-2.47,5.084-2.47c2.841,0,3.401,3.215,7.546,3.215c3.805,0,4.613-3.249,7.651-3.249 c5.14,0,6.603,6.278,6.603,6.278S37.446,14.904,31.584,14.904z" opacity=".1" />
  <radialGradient id="1uLzRjFcEWilfRXlyvMpBi" cx="24.025" cy="370.294" r="17.535" gradientTransform="matrix(1 0 0 -.9568 0 373.99)" gradientUnits="userSpaceOnUse">
    <stop offset="0" stop-color="#5c5050" />
    <stop offset=".419" stop-color="#5a4e4e" />
    <stop offset=".621" stop-color="#524848" />
    <stop offset=".776" stop-color="#453d3d" />
    <stop offset=".908" stop-color="#332d2d" />
    <stop offset=".998" stop-color="#211e1e" />
  </radialGradient>
  <path fill="url(#1uLzRjFcEWilfRXlyvMpBi)" d="M41.312,15.32C41.952,15.087,42,14.732,42,14c0-4.06-3.365-7.584-7.238-8.382 c0.592-1.261,0.057-1.988-1.51-1.949C30.345,3.74,27.566,0.377,24.413,3c-4.179-2.223-6.248-0.187-8.741,1.234 c-1.46,0.916-3.11,0.957-4.328,1.016c-1.977,0.095-1.382,1.792-0.635,2.229c-2.083,0.958-3.685,3.139-4.188,4.208 s0.233,1.603,0.922,1.31c-0.537,0.815-0.818,1.347-0.818,2.628C4.52,20.173,6.51,28.094,9.094,31.719 C7.467,19.864,13.529,14.97,16.5,14.97c3.685,0,3.134,3.158,7.593,3.158c4.104,0,3.723-3.034,7.407-3.034 c1.483,0,4.72,1.199,6.868,6.89c0.577,1.576,1.287,5.516,0.538,9.735C41.606,27.966,41.831,18.541,41.312,15.32z" />
  <path fill="#171515" d="M31.435,11.359c-3.536,0-4.015,2.443-7.435,2.443s-3.664-2.432-7.2-2.432 c-5.264,0-12.117,7.366-7.784,19.751c-1.181-12.297,5.781-16.272,7.441-16.272c2.993,0,3.809,3.308,7.543,3.308 s4.551-3.395,7.543-3.395c1.635,0,8.82,3.419,7.552,16.339C43.437,18.621,36.827,11.359,31.435,11.359z" opacity=".167" />
  <path fill="#171515" d="M31.457,11.939c-3.582,0-4.007,2.593-7.457,2.593s-3.687-2.572-7.269-2.572 c-5.346,0-11.532,7.683-7.7,19.28c-1.181-12.297,5.629-16.289,7.425-16.289c2.993,0,3.809,3.308,7.543,3.308 s4.551-3.377,7.543-3.377c1.747,0,8.759,3.571,7.514,16.343C42.907,19.437,36.955,11.939,31.457,11.939z" opacity=".333" />
  <path fill="#171515" d="M31.478,12.519c-3.628,0-3.998,2.743-7.478,2.743s-3.71-2.712-7.338-2.712 c-5.428,0-10.947,8-7.615,18.809c-1.181-12.297,5.477-16.307,7.41-16.307c2.993,0,3.809,3.307,7.543,3.307 s4.551-3.359,7.543-3.359c1.858,0,8.699,3.723,7.477,16.347C42.377,20.253,37.083,12.519,31.478,12.519z" opacity=".5" />
  <path fill="#171515" d="M31.5,13.099c-3.674,0-3.989,2.893-7.5,2.893s-3.732-2.851-7.406-2.851 c-5.511,0-10.363,8.317-7.531,18.338c-1.181-12.297,5.325-16.324,7.394-16.324c2.993,0,3.809,3.307,7.543,3.307 s4.551-3.341,7.543-3.341c1.97,0,8.638,3.875,7.439,16.351C41.847,21.069,37.211,13.099,31.5,13.099z" opacity=".667" />
  <path fill="#171515" d="M31.522,13.679c-3.72,0-3.981,3.043-7.522,3.043s-3.755-2.991-7.475-2.991 c-5.593,0-9.778,8.633-7.447,17.867c-1.181-12.297,5.174-16.341,7.378-16.341c2.993,0,3.809,3.306,7.543,3.306 s4.551-3.324,7.543-3.324c2.082,0,8.578,4.027,7.401,16.355C41.317,21.885,37.339,13.679,31.522,13.679z" opacity=".833" />
  <path fill="#171515" d="M31.543,14.26c-3.766,0-3.972,3.193-7.543,3.193s-3.778-3.13-7.543-3.13 c-5.675,0-9.193,8.95-7.363,17.396C7.913,19.422,14.116,15.36,16.457,15.36c2.993,0,3.809,3.306,7.543,3.306 s4.551-3.306,7.543-3.306c2.193,0,8.517,4.18,7.363,16.359C40.788,22.702,37.468,14.26,31.543,14.26z" />
  <path fill="#171515" d="M13.592,22.088c0.472-0.189,0.899-0.319,1.354-0.446c0.449-0.123,0.902-0.228,1.358-0.321c0.911-0.182,1.832-0.313,2.759-0.4l0.006-0.001c0.562-0.052,1.059,0.36,1.112,0.922c0.052,0.562-0.36,1.059-0.922,1.112c-0.064,0.006-0.134,0.005-0.196-0.001c-0.862-0.086-1.73-0.129-2.597-0.125c-0.433,0.004-0.867,0.019-1.299,0.052c-0.424,0.033-0.875,0.084-1.258,0.156l-0.037,0.007c-0.271,0.051-0.533-0.127-0.584-0.399C13.242,22.406,13.375,22.175,13.592,22.088z" />
  <path fill="#171515" d="M34.092,23.037c-0.383-0.072-0.834-0.124-1.258-0.156c-0.431-0.033-0.865-0.048-1.299-0.052c-0.868-0.004-1.735,0.039-2.597,0.125c-0.561,0.056-1.061-0.354-1.117-0.915c-0.056-0.561,0.354-1.061,0.915-1.117c0.064-0.006,0.128-0.007,0.19-0.001l0.012,0.001c0.926,0.086,1.848,0.218,2.759,0.4c0.455,0.093,0.908,0.197,1.358,0.321c0.455,0.127,0.882,0.257,1.354,0.446c0.256,0.103,0.381,0.394,0.278,0.65c-0.091,0.225-0.327,0.349-0.557,0.305L34.092,23.037z" />
  <g>
    <radialGradient id="1uLzRjFcEWilfRXlyvMpBj" cx="-21.275" cy="21.83" r="3.789" gradientTransform="matrix(1.0927 0 0 1.0817 47.307 15.353)" gradientUnits="userSpaceOnUse">
      <stop offset=".57" stop-opacity=".2" />
      <stop offset="1" stop-opacity="0" />
    </radialGradient>
    <path fill="url(#1uLzRjFcEWilfRXlyvMpBj)" d="M24,41c-3.673,0-4.299-1.947-4.299-1.947S20.314,43,24,43s4.299-3.947,4.299-3.947 S27.673,41,24,41z" />
    <radialGradient id="1uLzRjFcEWilfRXlyvMpBk" cx="-38.763" cy="-185.69" r="5.86" fx="-38.768" fy="-185.471" gradientTransform="matrix(.7909 0 0 .4766 54.657 126.69)" gradientUnits="userSpaceOnUse">
      <stop offset=".78" stop-color="#fff" stop-opacity=".4" />
      <stop offset="1" stop-color="#fff" stop-opacity="0" />
    </radialGradient>
    <path fill="url(#1uLzRjFcEWilfRXlyvMpBk)" d="M28.562,38c0,0,0.058,3-4.564,3s-4.564-3-4.564-3s1.014,0.914,4.564,0.914 S28.562,38,28.562,38z" />
    <radialGradient id="1uLzRjFcEWilfRXlyvMpBl" cx="-44.742" cy="-64.369" r="4.691" gradientTransform="matrix(.8333 0 0 .6703 61.342 81.075)" gradientUnits="userSpaceOnUse">
      <stop offset="0" stop-color="#1c1911" />
      <stop offset=".999" stop-color="#171714" />
    </radialGradient>
    <path fill="url(#1uLzRjFcEWilfRXlyvMpBl)" d="M19.75,38c-0.249,0-0.394,0.209-0.271,0.377C20.39,39.623,22.477,40,23.999,40 c1.654,0,3.609-0.377,4.519-1.623C28.641,38.209,28.496,38,28.247,38C25.031,38,23.031,38,19.75,38z" />
  </g>
  <g>
    <radialGradient id="1uLzRjFcEWilfRXlyvMpBm" cx="24" cy="31.951" r="3.384" gradientTransform="matrix(.9999 -.011 .0059 .5371 -.188 15.056)" gradientUnits="userSpaceOnUse">
      <stop offset="0" stop-color="#fff" />
      <stop offset="1" stop-color="#fff" stop-opacity="0" />
    </radialGradient>
    <ellipse cx="24" cy="32" fill="url(#1uLzRjFcEWilfRXlyvMpBm)" rx="3.5" ry="2" />
    <radialGradient id="1uLzRjFcEWilfRXlyvMpBn" cx="24.029" cy="32.953" r="2.701" gradientTransform="matrix(.0022 1 -1.2107 .0026 63.875 8.837)" gradientUnits="userSpaceOnUse">
      <stop offset=".415" stop-opacity=".3" />
      <stop offset="1" stop-opacity="0" />
    </radialGradient>
    <path fill="url(#1uLzRjFcEWilfRXlyvMpBn)" d="M26.754,33.238C26.465,33.386,25.66,34,24,34s-2.465-0.614-2.754-0.762 c-0.289-0.148-0.48-0.078-0.48,0.198C20.766,34.155,21.931,36,24,36s3.234-1.845,3.234-2.564 C27.234,33.16,27.043,33.09,26.754,33.238z" />
  </g>
</svg>